<?xml version="1.0" encoding="UTF-8" ?>
<!DOCTYPE svg PUBLIC "-//W3C//DTD SVG 1.1//EN" "http://www.w3.org/Graphics/SVG/1.1/DTD/svg11.dtd">
<svg width="512pt" height="512pt" viewBox="0 0 512 512" version="1.1" xmlns="http://www.w3.org/2000/svg">
<g id="#000000ff">
<path fill="#000000" opacity="1.00" d=" M 211.78 0.00 L 300.55 0.00 C 311.22 0.62 321.66 5.14 329.11 12.85 C 336.99 20.75 341.36 31.87 341.32 43.00 C 341.36 85.56 341.32 128.11 341.34 170.66 C 383.86 170.68 426.39 170.65 468.92 170.68 C 481.28 170.56 493.54 176.07 501.58 185.47 C 507.95 192.73 511.53 202.21 512.00 211.83 L 512.00 300.00 C 511.52 316.03 501.35 331.29 486.58 337.65 C 480.79 340.29 474.39 341.36 468.05 341.34 C 425.81 341.33 383.57 341.33 341.33 341.33 C 341.33 383.57 341.33 425.80 341.34 468.04 C 341.37 474.66 340.16 481.33 337.29 487.33 C 330.90 501.43 316.37 511.13 300.96 512.00 L 211.42 512.00 C 194.76 511.31 179.15 500.06 173.45 484.36 C 170.69 477.61 170.54 470.20 170.66 463.01 C 170.68 422.45 170.66 381.89 170.66 341.34 C 128.11 341.32 85.55 341.35 43.00 341.32 C 32.11 341.40 21.26 337.18 13.39 329.63 C 5.12 321.90 0.25 310.77 0.00 299.47 L 0.00 212.57 C 0.15 196.30 10.49 180.77 25.43 174.35 C 31.85 171.40 38.98 170.51 45.98 170.65 C 87.54 170.68 129.10 170.66 170.66 170.66 C 170.68 128.12 170.65 85.57 170.68 43.03 C 170.60 32.38 174.60 21.76 181.85 13.94 C 189.44 5.51 200.49 0.52 211.78 0.00 M 210.25 17.28 C 198.00 18.50 187.78 29.68 187.77 42.02 C 187.65 87.73 187.81 133.44 187.70 179.14 C 187.86 183.78 183.68 187.90 179.04 187.70 C 133.70 187.78 88.34 187.70 42.99 187.74 C 33.87 187.57 24.91 192.67 20.45 200.64 C 17.92 204.94 16.93 209.99 17.06 214.94 C 17.10 242.99 17.02 271.04 17.10 299.09 C 16.95 312.37 28.74 324.25 42.02 324.23 C 87.71 324.34 133.40 324.19 179.08 324.30 C 183.80 324.11 187.93 328.37 187.71 333.07 C 187.79 378.70 187.67 424.35 187.77 469.99 C 187.76 483.26 199.63 495.04 212.91 494.90 C 241.63 494.95 270.35 494.95 299.08 494.90 C 312.37 495.04 324.25 483.23 324.23 469.95 C 324.34 424.28 324.20 378.60 324.30 332.94 C 324.10 328.30 328.22 324.13 332.86 324.30 C 375.58 324.22 418.29 324.29 461.01 324.27 C 466.89 324.19 473.03 324.82 478.61 322.51 C 488.12 318.92 494.90 309.24 494.90 299.05 C 494.98 271.04 494.90 243.02 494.94 215.00 C 495.02 210.77 494.39 206.46 492.56 202.61 C 488.50 193.59 478.86 187.52 468.97 187.74 C 423.62 187.70 378.27 187.78 332.92 187.70 C 327.82 187.93 323.68 183.04 324.26 178.07 C 324.26 133.04 324.28 88.02 324.26 42.99 C 324.48 32.85 318.09 23.03 308.73 19.14 C 302.21 16.20 294.92 17.25 288.00 17.07 C 262.09 17.21 236.16 16.78 210.25 17.28 Z" />
<path fill="#000000" opacity="1.00" d=" M 252.36 43.51 C 256.66 41.31 262.18 43.62 263.99 48.00 C 277.92 75.76 291.77 103.55 305.67 131.33 C 306.84 133.64 307.74 136.33 306.88 138.91 C 305.86 142.72 302.00 145.31 298.10 145.05 C 269.71 145.03 241.31 145.16 212.93 144.99 C 206.99 145.03 202.82 137.88 205.74 132.71 C 219.41 105.08 233.31 77.57 247.03 49.96 C 248.29 47.48 249.64 44.67 252.36 43.51 M 227.14 127.99 C 246.38 128.00 265.62 128.00 284.85 127.99 C 275.28 108.74 265.62 89.53 256.01 70.29 C 246.35 89.51 236.73 108.74 227.14 127.99 Z" />
<path fill="#000000" opacity="1.00" d=" M 133.38 205.44 C 138.94 202.83 145.68 207.93 145.05 213.94 C 145.07 241.99 145.08 270.04 145.05 298.09 C 145.27 301.95 142.69 305.77 138.93 306.80 C 136.37 307.67 133.69 306.81 131.41 305.62 C 103.63 291.67 75.79 277.84 48.02 263.88 C 43.71 261.87 41.74 256.22 44.00 252.01 C 45.13 249.47 47.67 248.11 50.05 246.96 C 77.87 233.20 105.51 219.08 133.38 205.44 Z" />
<path fill="#000000" opacity="1.00" d=" M 372.32 205.42 C 375.05 204.21 378.11 205.00 380.63 206.35 C 408.59 220.40 436.62 234.31 464.57 248.38 C 470.75 251.05 470.80 260.84 464.65 263.57 C 436.43 277.78 408.14 291.84 379.89 305.99 C 376.35 308.02 371.47 307.37 368.90 304.11 C 367.16 302.17 366.88 299.48 366.91 296.99 C 366.96 269.30 366.89 241.61 366.95 213.92 C 366.75 210.31 368.91 206.71 372.32 205.42 Z" />
<path fill="#000000" opacity="1.00" d=" M 247.27 214.26 C 258.05 211.99 269.68 214.09 278.93 220.08 C 289.01 226.46 296.16 237.23 298.05 249.01 C 299.98 260.27 297.11 272.23 290.25 281.37 C 283.00 291.28 271.28 297.76 259.02 298.53 C 246.83 299.47 234.37 294.82 225.81 286.10 C 216.18 276.58 211.62 262.32 213.94 248.98 C 216.52 232.00 230.43 217.56 247.27 214.26 M 253.44 230.54 C 247.39 231.13 241.60 233.96 237.44 238.39 C 228.16 247.71 228.13 264.23 237.40 273.57 C 245.89 282.97 261.54 284.27 271.46 276.37 C 281.65 268.99 284.67 253.71 278.03 243.01 C 273.16 234.54 263.15 229.46 253.44 230.54 Z" />
<path fill="#000000" opacity="1.00" d=" M 210.33 367.53 C 212.46 366.78 214.78 366.95 217.01 366.91 C 244.38 367.02 271.76 366.80 299.13 367.01 C 305.04 367.02 309.15 374.14 306.26 379.30 C 292.18 407.55 278.01 435.75 263.93 464.00 C 262.46 467.43 258.76 469.80 254.99 469.27 C 251.88 468.96 249.30 466.75 248.06 463.97 C 234.85 437.53 221.64 411.09 208.40 384.67 C 207.19 382.17 205.69 379.78 205.00 377.07 C 204.11 373.14 206.56 368.87 210.33 367.53 M 227.14 384.00 C 236.85 403.18 246.33 422.48 256.01 441.67 C 265.63 422.45 275.17 403.19 284.86 384.00 C 265.62 383.99 246.38 383.99 227.14 384.00 Z" />
</g>
</svg>
