<?xml version="1.0" encoding="UTF-8" ?>
<!DOCTYPE svg PUBLIC "-//W3C//DTD SVG 1.1//EN" "http://www.w3.org/Graphics/SVG/1.1/DTD/svg11.dtd">
<svg width="512pt" height="512pt" viewBox="0 0 512 512" version="1.1" xmlns="http://www.w3.org/2000/svg">
<g id="#000000ff">
<path fill="#000000" opacity="1.00" d=" M 212.54 0.00 L 300.67 0.00 C 312.50 0.64 323.97 6.27 331.49 15.47 C 337.87 23.12 341.36 33.05 341.32 43.01 C 341.36 85.56 341.31 128.11 341.34 170.66 C 381.23 170.68 421.11 170.66 461.00 170.67 C 468.67 170.58 476.56 170.43 483.84 173.22 C 499.92 178.85 511.46 194.82 512.00 211.82 L 512.00 299.99 C 511.54 311.36 506.54 322.50 498.07 330.13 C 490.25 337.40 479.60 341.36 468.96 341.32 C 426.42 341.35 383.88 341.32 341.34 341.34 C 341.32 383.90 341.36 426.46 341.32 469.02 C 341.36 479.43 337.51 489.79 330.58 497.57 C 322.98 506.29 311.72 511.48 300.21 512.00 L 211.48 512.00 C 194.57 511.28 178.74 499.75 173.20 483.72 C 170.40 476.48 170.59 468.61 170.67 460.99 C 170.66 421.10 170.68 381.22 170.66 341.34 C 128.11 341.31 85.57 341.36 43.02 341.32 C 31.39 341.40 19.82 336.54 11.83 328.07 C 4.81 320.84 0.73 311.05 0.00 301.04 L 0.00 211.87 C 0.48 196.44 9.97 181.70 23.93 175.06 C 29.83 172.12 36.40 170.67 42.98 170.68 C 85.54 170.65 128.10 170.69 170.66 170.66 C 170.68 128.10 170.65 85.54 170.68 42.98 C 170.59 31.86 175.03 20.78 182.86 12.87 C 190.57 4.91 201.47 0.24 212.54 0.00 M 210.27 17.26 C 198.00 18.48 187.79 29.69 187.76 42.03 C 187.69 86.00 187.75 129.98 187.74 173.95 C 187.67 176.50 187.98 179.11 187.35 181.61 C 186.36 185.22 182.75 187.82 179.02 187.71 C 134.36 187.75 89.69 187.73 45.02 187.72 C 40.60 187.61 36.08 188.12 32.05 190.05 C 23.21 193.99 17.08 203.27 17.09 212.97 C 17.05 241.68 17.05 270.38 17.09 299.09 C 16.96 312.41 28.81 324.28 42.11 324.24 C 86.40 324.30 130.68 324.26 174.96 324.26 C 177.83 324.33 180.97 323.87 183.54 325.47 C 186.14 326.97 187.76 329.93 187.71 332.94 C 187.78 378.62 187.67 424.31 187.77 469.99 C 187.76 483.27 199.64 495.03 212.91 494.90 C 241.63 494.95 270.35 494.95 299.07 494.90 C 312.37 495.03 324.24 483.24 324.23 469.95 C 324.31 425.63 324.26 381.32 324.26 337.00 C 324.34 334.16 323.86 331.04 325.45 328.49 C 326.96 325.89 329.88 324.21 332.89 324.29 C 378.59 324.21 424.29 324.33 469.98 324.23 C 482.92 324.21 494.49 312.97 494.86 300.04 C 495.03 272.38 494.87 244.70 494.94 217.03 C 494.95 213.33 494.98 209.55 493.84 205.99 C 490.73 194.91 479.48 187.04 468.01 187.73 C 424.34 187.75 380.67 187.72 337.01 187.74 C 334.15 187.67 331.02 188.12 328.47 186.53 C 325.89 185.02 324.23 182.11 324.29 179.11 C 324.21 133.43 324.33 87.73 324.23 42.05 C 324.24 28.76 312.38 16.95 299.08 17.09 C 269.48 17.16 239.86 16.82 210.27 17.26 Z" />
<path fill="#000000" opacity="1.00" d=" M 253.33 43.49 C 257.36 42.09 262.15 44.14 263.97 47.99 C 278.00 76.00 292.00 104.04 306.02 132.07 C 308.08 135.62 307.40 140.53 304.12 143.10 C 302.18 144.80 299.52 145.16 297.03 145.08 C 269.33 145.04 241.62 145.09 213.92 145.06 C 209.74 145.32 205.67 142.23 205.00 138.08 C 204.27 134.91 206.08 132.04 207.42 129.34 C 220.88 102.45 234.33 75.56 247.76 48.66 C 248.85 46.30 250.80 44.26 253.33 43.49 Z" />
<path fill="#000000" opacity="1.00" d=" M 133.35 205.47 C 138.89 202.89 145.61 207.95 145.05 213.93 C 145.04 242.32 145.14 270.71 145.01 299.10 C 144.98 304.99 137.90 309.16 132.73 306.28 C 104.28 292.07 75.84 277.83 47.40 263.61 C 43.35 261.72 41.46 256.38 43.48 252.38 C 44.45 250.13 46.55 248.69 48.70 247.71 C 76.94 233.69 105.07 219.43 133.35 205.47 M 70.37 256.03 C 89.57 265.64 108.82 275.17 127.99 284.85 C 128.01 265.62 128.00 246.38 127.99 227.14 C 108.83 236.86 89.52 246.29 70.37 256.03 Z" />
<path fill="#000000" opacity="1.00" d=" M 372.29 205.42 C 375.88 203.78 379.56 205.70 382.70 207.39 C 409.79 220.95 436.91 234.45 463.98 248.05 C 468.04 249.75 470.43 254.65 468.84 258.85 C 468.01 261.48 465.73 263.23 463.33 264.35 C 435.32 278.31 407.36 292.39 379.32 306.29 C 374.10 309.22 366.90 305.02 366.98 299.03 C 366.87 270.65 366.95 242.27 366.94 213.90 C 366.74 210.31 368.91 206.72 372.29 205.42 M 384.01 227.16 C 383.99 246.38 383.99 265.61 384.01 284.84 C 403.21 275.23 422.50 265.77 441.60 255.94 C 422.41 246.33 403.23 236.69 384.01 227.16 Z" />
<path fill="#000000" opacity="1.00" d=" M 247.25 214.26 C 258.04 211.99 269.71 214.05 278.97 220.07 C 289.03 226.45 296.17 237.22 298.05 248.99 C 299.97 260.26 297.09 272.24 290.22 281.38 C 283.56 290.46 273.16 296.67 261.99 298.20 C 251.05 299.81 239.54 296.92 230.69 290.29 C 221.87 283.84 215.70 273.87 213.95 263.08 C 212.29 253.26 214.16 242.87 219.27 234.31 C 225.26 224.11 235.66 216.64 247.25 214.26 M 248.38 231.56 C 238.28 234.58 230.68 244.40 230.44 254.97 C 229.94 264.22 235.03 273.42 243.04 278.06 C 252.31 283.69 265.10 282.41 273.07 275.04 C 281.64 267.63 284.09 254.28 278.75 244.30 C 273.42 233.46 259.87 227.74 248.38 231.56 Z" />
<path fill="#000000" opacity="1.00" d=" M 210.37 367.47 C 212.17 366.79 214.13 366.96 216.02 366.91 C 243.73 366.99 271.44 366.83 299.15 366.99 C 305.03 367.04 309.14 374.12 306.27 379.27 C 292.09 407.76 277.85 436.21 263.59 464.66 C 260.85 470.77 251.11 470.76 248.41 464.63 C 234.14 436.22 219.93 407.77 205.75 379.32 C 203.39 374.99 205.70 369.04 210.37 367.47 Z" />
</g>
</svg>
